<svg xmlns="http://www.w3.org/2000/svg" xmlns:xlink="http://www.w3.org/1999/xlink" width="250" zoomAndPan="magnify" viewBox="0 0 187.5 187.499992" height="250" preserveAspectRatio="xMidYMid meet" version="1.2"><defs><clipPath id="6b7d3ca458"><path d="M 9.316406 126.042969 L 60.703125 126.042969 L 60.703125 177.410156 L 9.316406 177.410156 Z M 9.316406 126.042969 "/></clipPath><clipPath id="1ce2d9b34c"><path d="M 15.078125 130.023438 L 55 130.023438 L 55 171.660156 L 15.078125 171.660156 Z M 15.078125 130.023438 "/></clipPath><clipPath id="97655e0cb4"><path d="M 54.765625 171.472656 L 15.269531 171.472656 L 15.269531 130.429688 L 35.019531 169.921875 L 54.765625 130.429688 Z M 54.765625 171.472656 "/></clipPath><clipPath id="acb7e8d546"><path d="M 67.691406 126.023438 L 119.078125 126.023438 L 119.078125 177.429688 L 67.691406 177.429688 Z M 67.691406 126.023438 "/></clipPath><clipPath id="32db951bac"><path d="M 73.628906 131.980469 L 113.140625 131.980469 L 113.140625 145.789062 L 73.628906 145.789062 Z M 73.628906 157.664062 L 113.140625 157.664062 L 113.140625 171.472656 L 73.628906 171.472656 Z M 73.628906 157.664062 "/></clipPath><clipPath id="fb0f5dc737"><path d="M 126.03125 126.023438 L 177.417969 126.023438 L 177.417969 177.429688 L 126.03125 177.429688 Z M 126.03125 126.023438 "/></clipPath><clipPath id="de6394fcea"><path d="M 131.953125 131.484375 L 172 131.484375 L 172 173.121094 L 131.953125 173.121094 Z M 131.953125 131.484375 "/></clipPath><clipPath id="faf33469c5"><path d="M 131.988281 173.023438 L 131.988281 131.980469 L 171.480469 131.980469 L 171.480469 173.023438 L 151.734375 133.53125 Z M 131.988281 173.023438 "/></clipPath><clipPath id="f3c8c11775"><path d="M 67.671875 9.578125 L 119.058594 9.578125 L 119.058594 60.960938 L 67.671875 60.960938 Z M 67.671875 9.578125 "/></clipPath><clipPath id="f1bd298716"><path d="M 72.054688 15.339844 L 115.882812 15.339844 L 115.882812 55.515625 L 72.054688 55.515625 Z M 72.054688 15.339844 "/></clipPath><clipPath id="08eee0bf9f"><path d="M 73.628906 29.515625 L 73.628906 15.53125 L 115.59375 15.53125 Z M 113.121094 48.78125 L 72.59375 35.261719 L 113.121094 21.757812 Z M 115.59375 55.007812 L 73.628906 55.007812 L 73.628906 41.023438 Z M 115.59375 55.007812 "/></clipPath><clipPath id="dc5acb950b"><path d="M 126.03125 9.578125 L 177.417969 9.578125 L 177.417969 60.960938 L 126.03125 60.960938 Z M 126.03125 9.578125 "/></clipPath><clipPath id="ad5d1bcf74"><path d="M 150.214844 34 L 172 34 L 172 55.515625 L 150.214844 55.515625 Z M 150.214844 34 "/></clipPath><clipPath id="2d74eb4657"><path d="M 171.480469 55.027344 L 171.480469 34.109375 L 150.585938 55.027344 Z M 171.480469 55.027344 "/></clipPath><clipPath id="2663c48f7b"><path d="M 131.953125 15.339844 L 153 15.339844 L 153 36.523438 L 131.953125 36.523438 Z M 131.953125 15.339844 "/></clipPath><clipPath id="91bf4f59e8"><path d="M 131.988281 15.53125 L 131.988281 36.429688 L 152.882812 15.53125 Z M 131.988281 15.53125 "/></clipPath><clipPath id="a5b94dd9d3"><path d="M 131.953125 15.339844 L 172 15.339844 L 172 55.515625 L 131.953125 55.515625 Z M 131.953125 15.339844 "/></clipPath><clipPath id="5d9d9307b3"><path d="M 171.480469 22.621094 L 171.480469 15.53125 L 164.394531 15.53125 L 131.988281 47.917969 L 131.988281 55.027344 L 139.09375 55.027344 Z M 171.480469 22.621094 "/></clipPath><clipPath id="2bf7f44566"><path d="M 9.316406 67.800781 L 60.703125 67.800781 L 60.703125 119.1875 L 9.316406 119.1875 Z M 9.316406 67.800781 "/></clipPath><clipPath id="0329c49948"><path d="M 15.078125 73.046875 L 55 73.046875 L 55 113.953125 L 15.078125 113.953125 Z M 15.078125 73.046875 "/></clipPath><clipPath id="448a3652f0"><path d="M 15.269531 107.503906 L 15.269531 73.757812 L 49.019531 73.757812 Z M 54.78125 113.25 L 21.015625 113.25 L 54.707031 79.503906 Z M 54.78125 113.25 "/></clipPath><clipPath id="d6c77669c3"><path d="M 67.671875 67.800781 L 119.058594 67.800781 L 119.058594 119.1875 L 67.671875 119.1875 Z M 67.671875 67.800781 "/></clipPath><clipPath id="786d250327"><path d="M 73.515625 73.046875 L 113.691406 73.046875 L 113.691406 113.953125 L 73.515625 113.953125 Z M 73.515625 73.046875 "/></clipPath><clipPath id="bb54bfbcb4"><path d="M 113.101562 113.917969 L 93.375 94.171875 L 73.609375 113.917969 L 73.609375 73.066406 L 93.375 92.8125 L 113.101562 73.066406 Z M 113.101562 113.917969 "/></clipPath><clipPath id="c58d3bcb88"><path d="M 126.03125 67.800781 L 177.417969 67.800781 L 177.417969 119.1875 L 126.03125 119.1875 Z M 126.03125 67.800781 "/></clipPath><clipPath id="c463c006ae"><path d="M 131.953125 73.046875 L 166 73.046875 L 166 108 L 131.953125 108 Z M 131.953125 73.046875 "/></clipPath><clipPath id="d3ea76ef26"><path d="M 131.96875 107.503906 L 131.96875 73.738281 L 165.734375 73.738281 Z M 131.96875 107.503906 "/></clipPath><clipPath id="b47d182251"><path d="M 9.316406 9.578125 L 60.71875 9.578125 L 60.71875 60.960938 L 9.316406 60.960938 Z M 9.316406 9.578125 "/></clipPath><clipPath id="37b44d5926"><path d="M 21 15.339844 L 55 15.339844 L 55 49.671875 L 21 49.671875 Z M 21 15.339844 "/></clipPath><clipPath id="b0bf125f36"><path d="M 54.765625 49.28125 L 21.015625 15.511719 L 54.765625 15.511719 Z M 54.765625 49.28125 "/></clipPath></defs><g id="cb37f2e8f7"><path style=" stroke:none;fill-rule:nonzero;fill:#ffffff;fill-opacity:1;" d="M 0 0 L 187 0 L 187 187 L 0 187 Z M 0 0 "/><path style=" stroke:none;fill-rule:nonzero;fill:#ffffff;fill-opacity:1;" d="M 0 0 L 187 0 L 187 187 L 0 187 Z M 0 0 "/><g clip-rule="nonzero" clip-path="url(#6b7d3ca458)"><path style=" stroke:none;fill-rule:nonzero;fill:#ffffff;fill-opacity:1;" d="M -0.261719 0 L 186.738281 0 L 186.738281 187 L -0.261719 187 Z M -0.261719 0 "/></g><g clip-rule="nonzero" clip-path="url(#1ce2d9b34c)"><g clip-rule="nonzero" clip-path="url(#97655e0cb4)"><path style=" stroke:none;fill-rule:nonzero;fill:#000000;fill-opacity:1;" d="M -0.261719 0 L 186.738281 0 L 186.738281 187 L -0.261719 187 Z M -0.261719 0 "/></g></g><g clip-rule="nonzero" clip-path="url(#acb7e8d546)"><path style=" stroke:none;fill-rule:nonzero;fill:#ffffff;fill-opacity:1;" d="M -0.261719 0 L 186.738281 0 L 186.738281 187 L -0.261719 187 Z M -0.261719 0 "/></g><g clip-rule="nonzero" clip-path="url(#32db951bac)"><path style=" stroke:none;fill-rule:nonzero;fill:#000000;fill-opacity:1;" d="M -0.261719 0 L 186.738281 0 L 186.738281 187 L -0.261719 187 Z M -0.261719 0 "/></g><g clip-rule="nonzero" clip-path="url(#fb0f5dc737)"><path style=" stroke:none;fill-rule:nonzero;fill:#ffffff;fill-opacity:1;" d="M -0.261719 0 L 186.738281 0 L 186.738281 187 L -0.261719 187 Z M -0.261719 0 "/></g><g clip-rule="nonzero" clip-path="url(#de6394fcea)"><g clip-rule="nonzero" clip-path="url(#faf33469c5)"><path style=" stroke:none;fill-rule:nonzero;fill:#000000;fill-opacity:1;" d="M -0.261719 0 L 186.738281 0 L 186.738281 187 L -0.261719 187 Z M -0.261719 0 "/></g></g><g clip-rule="nonzero" clip-path="url(#f3c8c11775)"><path style=" stroke:none;fill-rule:nonzero;fill:#ffffff;fill-opacity:1;" d="M -0.261719 0 L 186.738281 0 L 186.738281 187 L -0.261719 187 Z M -0.261719 0 "/></g><g clip-rule="nonzero" clip-path="url(#f1bd298716)"><g clip-rule="nonzero" clip-path="url(#08eee0bf9f)"><path style=" stroke:none;fill-rule:nonzero;fill:#000000;fill-opacity:1;" d="M -0.261719 0 L 186.738281 0 L 186.738281 187 L -0.261719 187 Z M -0.261719 0 "/></g></g><g clip-rule="nonzero" clip-path="url(#dc5acb950b)"><path style=" stroke:none;fill-rule:nonzero;fill:#ffffff;fill-opacity:1;" d="M -0.261719 0 L 186.738281 0 L 186.738281 187 L -0.261719 187 Z M -0.261719 0 "/></g><g clip-rule="nonzero" clip-path="url(#ad5d1bcf74)"><g clip-rule="nonzero" clip-path="url(#2d74eb4657)"><path style=" stroke:none;fill-rule:nonzero;fill:#000000;fill-opacity:1;" d="M -0.261719 0 L 186.738281 0 L 186.738281 187 L -0.261719 187 Z M -0.261719 0 "/></g></g><g clip-rule="nonzero" clip-path="url(#2663c48f7b)"><g clip-rule="nonzero" clip-path="url(#91bf4f59e8)"><path style=" stroke:none;fill-rule:nonzero;fill:#000000;fill-opacity:1;" d="M -0.261719 0 L 186.738281 0 L 186.738281 187 L -0.261719 187 Z M -0.261719 0 "/></g></g><g clip-rule="nonzero" clip-path="url(#a5b94dd9d3)"><g clip-rule="nonzero" clip-path="url(#5d9d9307b3)"><path style=" stroke:none;fill-rule:nonzero;fill:#000000;fill-opacity:1;" d="M -0.261719 0 L 186.738281 0 L 186.738281 187 L -0.261719 187 Z M -0.261719 0 "/></g></g><g clip-rule="nonzero" clip-path="url(#2bf7f44566)"><path style=" stroke:none;fill-rule:nonzero;fill:#ffffff;fill-opacity:1;" d="M -0.261719 0 L 186.738281 0 L 186.738281 187 L -0.261719 187 Z M -0.261719 0 "/></g><g clip-rule="nonzero" clip-path="url(#0329c49948)"><g clip-rule="nonzero" clip-path="url(#448a3652f0)"><path style=" stroke:none;fill-rule:nonzero;fill:#000000;fill-opacity:1;" d="M -0.261719 0 L 186.738281 0 L 186.738281 187 L -0.261719 187 Z M -0.261719 0 "/></g></g><g clip-rule="nonzero" clip-path="url(#d6c77669c3)"><path style=" stroke:none;fill-rule:nonzero;fill:#ffffff;fill-opacity:1;" d="M -0.261719 0 L 186.738281 0 L 186.738281 187 L -0.261719 187 Z M -0.261719 0 "/></g><g clip-rule="nonzero" clip-path="url(#786d250327)"><g clip-rule="nonzero" clip-path="url(#bb54bfbcb4)"><path style=" stroke:none;fill-rule:nonzero;fill:#000000;fill-opacity:1;" d="M -0.261719 0 L 186.738281 0 L 186.738281 187 L -0.261719 187 Z M -0.261719 0 "/></g></g><g clip-rule="nonzero" clip-path="url(#c58d3bcb88)"><path style=" stroke:none;fill-rule:nonzero;fill:#ffffff;fill-opacity:1;" d="M -0.261719 0 L 186.738281 0 L 186.738281 187 L -0.261719 187 Z M -0.261719 0 "/></g><g clip-rule="nonzero" clip-path="url(#c463c006ae)"><g clip-rule="nonzero" clip-path="url(#d3ea76ef26)"><path style=" stroke:none;fill-rule:nonzero;fill:#000000;fill-opacity:1;" d="M -0.261719 0 L 186.738281 0 L 186.738281 187 L -0.261719 187 Z M -0.261719 0 "/></g></g><g clip-rule="nonzero" clip-path="url(#b47d182251)"><path style=" stroke:none;fill-rule:nonzero;fill:#ffffff;fill-opacity:1;" d="M -0.261719 0 L 186.738281 0 L 186.738281 187 L -0.261719 187 Z M -0.261719 0 "/></g><g clip-rule="nonzero" clip-path="url(#37b44d5926)"><g clip-rule="nonzero" clip-path="url(#b0bf125f36)"><path style=" stroke:none;fill-rule:nonzero;fill:#000000;fill-opacity:1;" d="M -0.261719 0 L 186.738281 0 L 186.738281 187 L -0.261719 187 Z M -0.261719 0 "/></g></g></g></svg>