<svg xmlns="http://www.w3.org/2000/svg" xmlns:xlink="http://www.w3.org/1999/xlink" width="250" zoomAndPan="magnify" viewBox="0 0 187.5 187.499992" height="250" preserveAspectRatio="xMidYMid meet" version="1.2"><defs><clipPath id="ffed8ff07f"><path d="M 8.035156 126.371094 L 60.628906 126.371094 L 60.628906 178.964844 L 8.035156 178.964844 Z M 8.035156 126.371094 "/></clipPath><clipPath id="2832dcc1a5"><path d="M 14.664062 172.351562 L 34.261719 172.351562 L 14.664062 133.136719 Z M 34.277344 172.351562 L 53.863281 172.351562 L 53.863281 133.136719 Z M 8.117188 126.609375 L 60.40625 126.609375 L 60.40625 178.878906 L 8.117188 178.878906 Z M 8.117188 126.609375 "/></clipPath><clipPath id="5bfdef5259"><path d="M 67.5 126.589844 L 119.789062 126.589844 L 119.789062 133.136719 L 67.5 133.136719 Z M 113.261719 133.136719 L 119.789062 133.136719 L 119.789062 146.207031 L 113.261719 146.207031 Z M 67.5 133.136719 L 74.027344 133.136719 L 74.027344 146.207031 L 67.5 146.207031 Z M 67.5 146.207031 L 119.789062 146.207031 L 119.789062 159.277344 L 67.5 159.277344 Z M 113.261719 159.277344 L 119.789062 159.277344 L 119.789062 172.351562 L 113.261719 172.351562 Z M 67.5 159.277344 L 74.027344 159.277344 L 74.027344 172.351562 L 67.5 172.351562 Z M 67.5 172.351562 L 119.789062 172.351562 L 119.789062 178.878906 L 67.5 178.878906 Z M 67.5 172.351562 "/></clipPath><clipPath id="c8d3a92b9a"><path d="M 126.371094 126.371094 L 179.695312 126.371094 L 179.695312 178.964844 L 126.371094 178.964844 Z M 126.371094 126.371094 "/></clipPath><clipPath id="2b64867b8a"><path d="M 153.011719 133.136719 L 172.625 172.332031 L 172.625 133.136719 Z M 133.410156 172.351562 L 153.011719 133.136719 L 133.410156 133.136719 Z M 126.867188 126.589844 L 179.152344 126.589844 L 179.152344 178.878906 L 126.867188 178.878906 Z M 126.867188 126.589844 "/></clipPath><clipPath id="5767782ec3"><path d="M 67.203125 8.035156 L 119.796875 8.035156 L 119.796875 60.628906 L 67.203125 60.628906 Z M 67.203125 8.035156 "/></clipPath><clipPath id="c4b2b4285e"><path d="M 74.027344 53.863281 L 113.242188 53.863281 L 74.027344 40.789062 Z M 113.242188 47.332031 L 113.242188 21.191406 L 74.027344 34.261719 Z M 113.242188 14.664062 L 74.027344 14.664062 L 74.027344 27.734375 Z M 67.5 8.117188 L 119.769531 8.117188 L 119.769531 60.40625 L 67.5 60.40625 Z M 67.5 8.117188 "/></clipPath><clipPath id="376aa2c279"><path d="M 126.371094 8.035156 L 179.695312 8.035156 L 179.695312 60.628906 L 126.371094 60.628906 Z M 126.371094 8.035156 "/></clipPath><clipPath id="16c330f76d"><path d="M 172.625 53.863281 L 172.625 34.261719 L 153.011719 53.863281 Z M 153.011719 14.664062 L 133.410156 14.664062 L 133.410156 34.261719 Z M 172.609375 21.191406 L 172.609375 14.664062 L 166.082031 14.664062 L 133.410156 47.332031 L 133.410156 53.863281 L 139.953125 53.863281 Z M 126.867188 8.117188 L 179.152344 8.117188 L 179.152344 60.40625 L 126.867188 60.40625 Z M 126.867188 8.117188 "/></clipPath><clipPath id="1e7d6a4d00"><path d="M 8.035156 67.203125 L 60.628906 67.203125 L 60.628906 119.796875 L 8.035156 119.796875 Z M 8.035156 67.203125 "/></clipPath><clipPath id="d5a5255955"><path d="M 14.664062 106.570312 L 47.332031 73.898438 L 14.664062 73.898438 Z M 53.878906 113.097656 L 53.8125 80.425781 L 21.191406 113.097656 Z M 60.40625 119.640625 L 8.117188 119.640625 L 8.117188 67.355469 L 60.40625 67.355469 Z M 60.40625 119.640625 "/></clipPath><clipPath id="07481cda0b"><path d="M 67.203125 67.203125 L 119.796875 67.203125 L 119.796875 119.796875 L 67.203125 119.796875 Z M 67.203125 67.203125 "/></clipPath><clipPath id="1904448819"><path d="M 93.628906 93.5 L 113.226562 113.097656 L 113.226562 73.898438 Z M 74.027344 113.097656 L 93.628906 93.5 L 74.027344 73.898438 Z M 67.5 67.355469 L 119.789062 67.355469 L 119.789062 119.640625 L 67.5 119.640625 Z M 67.5 67.355469 "/></clipPath><clipPath id="8557a4653a"><path d="M 126.371094 67.203125 L 179.695312 67.203125 L 179.695312 119.796875 L 126.371094 119.796875 Z M 126.371094 67.203125 "/></clipPath><clipPath id="6fcfde168e"><path d="M 133.394531 106.570312 L 166.082031 73.882812 L 133.394531 73.882812 Z M 126.867188 67.355469 L 179.152344 67.355469 L 179.152344 119.640625 L 126.867188 119.640625 Z M 126.867188 67.355469 "/></clipPath><clipPath id="f130062533"><path d="M 8.035156 8.035156 L 60.628906 8.035156 L 60.628906 60.628906 L 8.035156 60.628906 Z M 8.035156 8.035156 "/></clipPath><clipPath id="ec9a926d25"><path d="M 53.878906 14.648438 L 21.191406 14.648438 L 53.878906 47.332031 Z M 8.117188 8.117188 L 60.40625 8.117188 L 60.40625 60.40625 L 8.117188 60.40625 Z M 8.117188 8.117188 "/></clipPath></defs><g id="bc0ad9ad68"><path style=" stroke:none;fill-rule:nonzero;fill:#ffffff;fill-opacity:1;" d="M 0 0 L 187 0 L 187 187 L 0 187 Z M 0 0 "/><path style=" stroke:none;fill-rule:nonzero;fill:#ffffff;fill-opacity:1;" d="M 0 0 L 187 0 L 187 187 L 0 187 Z M 0 0 "/><g clip-rule="nonzero" clip-path="url(#ffed8ff07f)"><g clip-rule="nonzero" clip-path="url(#2832dcc1a5)"><path style=" stroke:none;fill-rule:nonzero;fill:#ca371c;fill-opacity:1;" d="M 0 0 L 187 0 L 187 187 L 0 187 Z M 0 0 "/></g></g><g clip-rule="nonzero" clip-path="url(#5bfdef5259)"><path style=" stroke:none;fill-rule:nonzero;fill:#ca371c;fill-opacity:1;" d="M 0 0 L 187 0 L 187 187 L 0 187 Z M 0 0 "/></g><g clip-rule="nonzero" clip-path="url(#c8d3a92b9a)"><g clip-rule="nonzero" clip-path="url(#2b64867b8a)"><path style=" stroke:none;fill-rule:nonzero;fill:#ca371c;fill-opacity:1;" d="M 0 0 L 187 0 L 187 187 L 0 187 Z M 0 0 "/></g></g><g clip-rule="nonzero" clip-path="url(#5767782ec3)"><g clip-rule="nonzero" clip-path="url(#c4b2b4285e)"><path style=" stroke:none;fill-rule:nonzero;fill:#ca371c;fill-opacity:1;" d="M 0 0 L 187 0 L 187 187 L 0 187 Z M 0 0 "/></g></g><g clip-rule="nonzero" clip-path="url(#376aa2c279)"><g clip-rule="nonzero" clip-path="url(#16c330f76d)"><path style=" stroke:none;fill-rule:nonzero;fill:#ca371c;fill-opacity:1;" d="M 0 0 L 187 0 L 187 187 L 0 187 Z M 0 0 "/></g></g><g clip-rule="nonzero" clip-path="url(#1e7d6a4d00)"><g clip-rule="nonzero" clip-path="url(#d5a5255955)"><path style=" stroke:none;fill-rule:nonzero;fill:#ca371c;fill-opacity:1;" d="M 0 0 L 187 0 L 187 187 L 0 187 Z M 0 0 "/></g></g><g clip-rule="nonzero" clip-path="url(#07481cda0b)"><g clip-rule="nonzero" clip-path="url(#1904448819)"><path style=" stroke:none;fill-rule:nonzero;fill:#ca371c;fill-opacity:1;" d="M 0 0 L 187 0 L 187 187 L 0 187 Z M 0 0 "/></g></g><g clip-rule="nonzero" clip-path="url(#8557a4653a)"><g clip-rule="nonzero" clip-path="url(#6fcfde168e)"><path style=" stroke:none;fill-rule:nonzero;fill:#ca371c;fill-opacity:1;" d="M 0 0 L 187 0 L 187 187 L 0 187 Z M 0 0 "/></g></g><g clip-rule="nonzero" clip-path="url(#f130062533)"><g clip-rule="nonzero" clip-path="url(#ec9a926d25)"><path style=" stroke:none;fill-rule:nonzero;fill:#ca371c;fill-opacity:1;" d="M 0 0 L 187 0 L 187 187 L 0 187 Z M 0 0 "/></g></g></g></svg>