<svg xmlns="http://www.w3.org/2000/svg" xmlns:xlink="http://www.w3.org/1999/xlink" width="250" zoomAndPan="magnify" viewBox="0 0 187.5 60" height="80" preserveAspectRatio="xMidYMid meet" version="1.2"><defs><clipPath id="77291020cf"><path d="M 0 0.078125 L 187 0.078125 L 187 59.917969 L 0 59.917969 Z M 0 0.078125 "/></clipPath><clipPath id="e73f3989d4"><path d="M 8.109375 12.9375 L 35.980469 12.9375 L 35.980469 20.089844 L 8.109375 20.089844 Z M 17.367188 20.089844 L 26.722656 20.089844 L 26.722656 47.070312 L 17.367188 47.070312 Z M 17.367188 20.089844 "/></clipPath><clipPath id="06bffa3800"><path d="M 33.035156 12.890625 L 65.285156 12.890625 L 65.285156 47.105469 L 33.035156 47.105469 Z M 33.035156 12.890625 "/></clipPath><clipPath id="6c9143e1ee"><path d="M 44.898438 33.140625 L 51.546875 33.140625 L 48.222656 21.675781 Z M 33.128906 47.054688 L 43.859375 12.9375 L 54.546875 12.9375 L 65.136719 47.054688 L 55.40625 47.054688 L 53.476562 40.292969 L 42.742188 40.292969 L 40.84375 47.054688 Z M 33.128906 47.054688 "/></clipPath><clipPath id="28ff10880c"><path d="M 67.644531 12.890625 L 95.761719 12.890625 L 95.761719 47.105469 L 67.644531 47.105469 Z M 67.644531 12.890625 "/></clipPath><clipPath id="d2ff537113"><path d="M 67.695312 47.070312 L 67.695312 12.9375 L 76.242188 12.9375 L 88.324219 30.289062 L 88.324219 12.9375 L 95.683594 12.9375 L 95.683594 47.070312 L 88.324219 47.070312 L 75.027344 27.726562 L 75.027344 47.070312 Z M 67.695312 47.070312 "/></clipPath><clipPath id="b274832f06"><path d="M 101.464844 12.890625 L 129.78125 12.890625 L 129.78125 47.105469 L 101.464844 47.105469 Z M 101.464844 12.890625 "/></clipPath><clipPath id="a25ca07e87"><path d="M 101.617188 47.070312 L 101.617188 12.9375 L 110.164062 12.9375 L 122.242188 30.289062 L 122.242188 12.9375 L 129.621094 12.9375 L 129.621094 47.070312 L 122.242188 47.070312 L 108.949219 27.726562 L 108.949219 47.070312 Z M 101.617188 47.070312 "/></clipPath><clipPath id="cb13638f03"><path d="M 135.554688 12.9375 L 144.929688 12.9375 L 144.929688 47.070312 L 135.554688 47.070312 Z M 135.554688 12.9375 "/></clipPath><clipPath id="d5174ce13d"><path d="M 150.820312 12.890625 L 178.941406 12.890625 L 178.941406 47.105469 L 150.820312 47.105469 Z M 150.820312 12.890625 "/></clipPath><clipPath id="36974ea1a0"><path d="M 150.894531 47.070312 L 150.894531 12.9375 L 159.441406 12.9375 L 171.519531 30.289062 L 171.519531 12.9375 L 178.882812 12.9375 L 178.882812 47.070312 L 171.519531 47.070312 L 158.226562 27.726562 L 158.226562 47.070312 Z M 150.894531 47.070312 "/></clipPath></defs><g id="5c9ef13c92"><g clip-rule="nonzero" clip-path="url(#77291020cf)"><path style=" stroke:none;fill-rule:nonzero;fill:#ffffff;fill-opacity:1;" d="M 0 0.078125 L 187 0.078125 L 187 59.921875 L 0 59.921875 Z M 0 0.078125 "/><path style=" stroke:none;fill-rule:nonzero;fill:#ffffff;fill-opacity:1;" d="M 0 0.078125 L 187 0.078125 L 187 59.921875 L 0 59.921875 Z M 0 0.078125 "/></g><g clip-rule="nonzero" clip-path="url(#e73f3989d4)"><path style=" stroke:none;fill-rule:nonzero;fill:#000000;fill-opacity:1;" d="M 0 4.828125 L 187 4.828125 L 187 55.167969 L 0 55.167969 Z M 0 4.828125 "/></g><g clip-rule="nonzero" clip-path="url(#06bffa3800)"><g clip-rule="nonzero" clip-path="url(#6c9143e1ee)"><path style=" stroke:none;fill-rule:nonzero;fill:#000000;fill-opacity:1;" d="M 0 4.828125 L 187 4.828125 L 187 55.167969 L 0 55.167969 Z M 0 4.828125 "/></g></g><g clip-rule="nonzero" clip-path="url(#28ff10880c)"><g clip-rule="nonzero" clip-path="url(#d2ff537113)"><path style=" stroke:none;fill-rule:nonzero;fill:#000000;fill-opacity:1;" d="M 0 4.828125 L 187 4.828125 L 187 55.167969 L 0 55.167969 Z M 0 4.828125 "/></g></g><g clip-rule="nonzero" clip-path="url(#b274832f06)"><g clip-rule="nonzero" clip-path="url(#a25ca07e87)"><path style=" stroke:none;fill-rule:nonzero;fill:#000000;fill-opacity:1;" d="M 0 4.828125 L 187 4.828125 L 187 55.167969 L 0 55.167969 Z M 0 4.828125 "/></g></g><g clip-rule="nonzero" clip-path="url(#cb13638f03)"><path style=" stroke:none;fill-rule:nonzero;fill:#000000;fill-opacity:1;" d="M 0 4.828125 L 187 4.828125 L 187 55.167969 L 0 55.167969 Z M 0 4.828125 "/></g><g clip-rule="nonzero" clip-path="url(#d5174ce13d)"><g clip-rule="nonzero" clip-path="url(#36974ea1a0)"><path style=" stroke:none;fill-rule:nonzero;fill:#000000;fill-opacity:1;" d="M 0 4.828125 L 187 4.828125 L 187 55.167969 L 0 55.167969 Z M 0 4.828125 "/></g></g></g></svg>